<svg data-name="Layer 1" xmlns="http://www.w3.org/2000/svg" viewBox="0 0 39.89 40.18"><path fill="#79b8ff" d="M19.59 20.19L11.1 25.1v-9.83l8.51-4.91-.02 9.83z"/><path fill="none" stroke="#2088ff" stroke-linecap="round" stroke-linejoin="round" stroke-width="2" d="M20.07 20.01l8.52 4.88M20.07 20.01l.06-9.45M20.07 20.01l-8.27 4.73M11.58 15.09v9.83l8.51 4.92 8.52-4.92v-9.83l-8.52-4.92-8.51 4.92z"/><circle cx="28.66" cy="5.18" r="1.65" fill="none" stroke="#2088ff" stroke-linecap="round" stroke-linejoin="round" stroke-width="2"/><circle cx="11.09" cy="5.18" r="1.65" fill="none" stroke="#2088ff" stroke-linecap="round" stroke-linejoin="round" stroke-width="2"/><circle cx="28.8" cy="35.08" r="1.65" fill="none" stroke="#2088ff" stroke-linecap="round" stroke-linejoin="round" stroke-width="2"/><circle cx="11.32" cy="34.89" r="1.65" fill="none" stroke="#2088ff" stroke-linecap="round" stroke-linejoin="round" stroke-width="2"/><circle cx="2.65" cy="20.11" r="1.65" fill="none" stroke="#2088ff" stroke-linecap="round" stroke-linejoin="round" stroke-width="2"/><circle cx="37.24" cy="20.11" r="1.65" fill="none" stroke="#2088ff" stroke-linecap="round" stroke-linejoin="round" stroke-width="2"/><path fill="none" stroke="#79b8ff" stroke-linecap="round" stroke-miterlimit="10" stroke-width="2" stroke-dasharray="10" d="M20.02 1.91v4.31"/><path d="M3.61 15.12a1 1 0 0 1-1-1v-4.08l3.53-2a1.003 1.003 0 0 1 1 1.74l-2.53 1.46v2.92a1 1 0 0 1-1 .96zM6.64 32.31a1 1 0 0 1-.5-.14l-3.53-2v-4.11a1 1 0 1 1 2 0v2.92l2.53 1.46a1 1 0 0 1-.5 1.87zM20 40.18l-3.53-2a1 1 0 0 1-.36-1.37 1 1 0 0 1 1.32-.4l2.53 1.46 2.54-1.46a1 1 0 0 1 1 1.73zM33.37 32.31a1 1 0 0 1-.5-1.87l2.56-1.46v-2.92a1 1 0 0 1 2 0v4.07l-3.53 2a1 1 0 0 1-.53.18zM36.43 15.12a1 1 0 0 1-1-1V11.2L32.9 9.74a1.003 1.003 0 0 1 1-1.74l3.53 2v4.08a1 1 0 0 1-1 1.04zM23.03 3.9a1 1 0 0 1-.49-.13L20 2.31l-2.57 1.46a1 1 0 0 1-1-1.73l3.53-2 3.54 2a1 1 0 0 1-.51 1.86z" fill="#79b8ff"/><path fill="none" stroke="#79b8ff" stroke-linecap="round" stroke-miterlimit="10" stroke-width="2" stroke-dasharray="10" d="M20.02 33.59v5.4M3.8 10.71l4.68 2.71M31.56 26.8l4.67 2.71M36.03 10.78l-4.67 2.71M8.28 26.87L3.6 29.58"/></svg>