<svg data-name="Layer 1" xmlns="http://www.w3.org/2000/svg" viewBox="0 0 67 59.56"><path d="M56 42a1 1 0 1 1 0-2 9 9 0 0 0 0-18h-1v-1A11.47 11.47 0 0 0 43.5 9.5a10.68 10.68 0 0 0-3.84.73l-.85.33-.4-.82A13.72 13.72 0 0 0 26.01 2a14 14 0 0 0-14 14v1l-.79.17a11.56 11.56 0 0 0-2.54 21.82 1 1 0 1 1-.84 1.81 13.56 13.56 0 0 1 2.13-25.4A16 16 0 0 1 26 0a15.7 15.7 0 0 1 13.78 8.11 12.49 12.49 0 0 1 3.71-.57 13.42 13.42 0 0 1 13.47 12.5A11 11 0 0 1 56 42z" fill="#79b8ff"/><circle cx="20.2" cy="32" r="1.7" fill="#2088ff"/><circle cx="20.2" cy="42.5" r="1.7" fill="#2088ff"/><circle cx="20.2" cy="53.1" r="1.7" fill="#2088ff"/><path fill="#2088ff" d="M14.6 36.2h35.7v2H14.6zm0 10.6h35.7v2H14.6z"/><path d="M40.59 19.3h-.13a1 1 0 0 1-.87-1.12 18.48 18.48 0 0 0 .19-2.38 13.73 13.73 0 0 0-1.59-6.44A13.91 13.91 0 0 0 25.89 2a1 1 0 0 1 0-2 15.9 15.9 0 0 1 14.08 8.43 15.72 15.72 0 0 1 1.82 7.37 20.29 20.29 0 0 1-.21 2.62 1 1 0 0 1-.99.88z" fill="#79b8ff"/><path d="M48.3 59.56H16.6a3 3 0 0 1-3-3V28.49a3 3 0 0 1 3-3h31.7a3 3 0 0 1 3 3v28.07a3 3 0 0 1-3 3zM16.6 27.49a1 1 0 0 0-1 1v28.07a1 1 0 0 0 1 1h31.7a1 1 0 0 0 1-1V28.49a1 1 0 0 0-1-1H16.6z" fill="#2088ff"/></svg>